<svg
    xmlns="http://www.w3.org/2000/svg"
    viewBox="0 0 800 800"
    >
  <path
    d="M699.17 393.83l-24.63 4.26 24.63-4.26zM675.65 257.84l-24.63 4.26 24.63-4.26zM231.26 117.43l-24.91-2.15 24.91 2.15zM204.19 430.52l24.9 2.15-24.9-2.15zM466.5 625.95l24.67-4.04-24.67 4.04zM444.41 491.13l24.67-4.04-24.67 4.04zM223.27 477.42l-16.32 18.94 16.32-18.94zM271.23 518.74l16.32-18.93-16.32 18.93zM350.6 640.54l-24.2 6.28 24.2-6.28zM366.46 701.67l24.2-6.28-24.2 6.28zM422.25 731.19l-7.64-23.8 7.64 23.8zM427.09 729.64l7.64 23.8-7.64-23.8zM328.73 584.58l22.05-11.78-22.05 11.78zM463.49 691.75l-24.2-6.28 24.2 6.28zM389.14 728.92l-10.85 22.52 10.85-22.52zM132.39 84.31l-24.91-2.15 24.91 2.15zM100 458.86l24.91 2.15c-1.16 13.34-12.61 23.4-25.99 22.83-13.37-0.58-23.92-11.59-23.92-24.98h25zM674.54 398.09l-23.52-135.99 49.27-8.53 23.52 136-49.27 8.52zM441.5 91.67h-154.95v-50h154.95v50zM256.17 119.58l-27.08 313.09-49.81-4.3 27.07-313.09 49.82 4.3zM651.02 262.1c-16.89-97.69-104.98-170.43-209.52-170.43v-50c127.54 0 237.53 88.96 258.79 211.9l-49.27 8.53zM441.83 629.99l-22.09-134.81 49.34-8.09 22.09 134.82-49.34 8.08zM239.59 458.48l47.96 41.33-32.64 37.87-47.96-41.32 32.64-37.88zM374.8 634.26l15.86 61.13-48.4 12.56-15.86-61.13 48.4-12.56zM414.61 707.39l4.83-1.56 15.29 47.61-4.83 1.55-15.29-47.6zM350.78 572.8c10.4 19.47 18.48 40.09 24.02 61.46l-48.4 12.56c-4.54-17.52-11.17-34.45-19.72-50.46l44.1-23.56zM419.44 705.83c10.21-3.28 17.47-11.17 19.85-20.36l48.4 12.56c-6.85 26.4-27.06 47.09-52.96 55.41l-15.29-47.61zM390.66 695.39c1.17 4.5 4.42 8.64 9.33 11.01l-21.7 45.04c-17.74-8.54-31.06-24.32-36.03-43.49l48.4-12.56zM399.99 706.4c4.49 2.16 9.78 2.54 14.62 0.99l15.29 47.6c-16.99 5.46-35.53 4.2-51.61-3.55l21.7-45.04zM471.79 433.86h172.7v50h-172.7v-50zM157.29 86.46l-32.38 374.55-49.82-4.3 32.39-374.55 49.81 4.3zM125 82.91v375.95h-50v-375.95h50zM107.48 82.16c-0.44 5.08 3.57 9.51 8.74 9.51v-50c24.2 0 43.15 20.73 41.07 44.79l-49.81-4.3zM491.17 621.91c4.15 25.34 2.97 51.26-3.48 76.12l-48.4-12.56c4.7-18.11 5.56-37.01 2.54-55.48l49.34-8.08zM286.55 91.67c-15.8 0-29.02 12.1-30.38 27.91l-49.82-4.3c3.6-41.62 38.41-73.61 80.2-73.61v50zM287.55 499.81c22.66 19.52 47.09 42.77 63.23 72.99l-44.1 23.56c-11.55-21.62-29.93-39.86-51.77-58.68l32.64-37.87zM723.81 389.57c8.51 49.21-29.34 94.29-79.32 94.29v-50c18.89 0 33.28-17.06 30.05-35.77l49.27-8.52zM116.22 91.67c4.88 0 8.78-3.95 8.78-8.76h-50c0-22.75 18.43-41.24 41.22-41.24v50zM419.74 495.18c-5.26-32.1 19.48-61.32 52.05-61.32v50c-1.66 0-2.99 1.51-2.71 3.23l-49.34 8.09zM229.09 432.67c-0.84 9.8 3.07 19.4 10.5 25.81l-32.64 37.88c-19.61-16.9-29.9-42.2-27.67-67.99l49.81 4.3z"
    fill="#ffffff"
    />
</svg>