<svg
    xmlns="http://www.w3.org/2000/svg"
    viewBox="0 0 800 800"
    >
  <path
    d="M675.66 282.84l23.52 135.99c5.87 33.96-20.25 65.03-54.68 65.03h-172.7c-17.12 0-30.15 15.36-27.38 32.27l22.09 134.82c3.58 21.91 2.56 44.32-3.01 65.8-4.62 17.8-18.35 32.08-36.41 37.89l-4.83 1.55c-10.91 3.5-22.82 2.69-33.11-2.27-11.33-5.46-19.61-15.41-22.68-27.25l-15.86-61.13c-5.05-19.45-12.39-38.22-21.87-55.96-13.85-25.92-35.25-46.66-57.5-65.84l-47.96-41.32c-13.52-11.66-20.62-29.11-19.09-46.9l27.08-313.09c2.48-28.72 26.49-50.76 55.28-50.76h154.96c116.04 0 215.07 80.85 234.15 191.17z"
    fill="#ffffff"
    />
  <path
    fill-rule="evenodd"
    d="M98.92 508.84c13.38 0.57 24.83-9.49 25.99-22.83l32.38-374.55c2.08-24.06-16.87-44.79-41.07-44.79-22.79 0-41.22 18.49-41.22 41.24v375.95c0 13.39 10.55 24.4 23.92 24.98z"
    fill="#ffffff"
    />
</svg>